<?xml version="1.0" encoding="UTF-8"?> <svg xmlns="http://www.w3.org/2000/svg" width="183" height="38" viewBox="0 0 183 38" fill="none"><g clip-path="url(#clip0)"><path d="M84.9236 22.593H82.241L76.2305 37.3621H79.0278L80.6344 33.2092H86.4728L88.1082 37.3621H90.8768L84.9379 22.6639L84.9236 22.593ZM85.7126 31.2249H81.3517L83.5751 25.4703L85.7126 31.2249Z" fill="#FF574A"></path><path d="M81.7104 0.694458H79.0996V15.4777H81.7104V0.694458Z" fill="white"></path><path d="M99.4534 15.6478C99.0661 15.6478 96.5414 15.5486 96.5414 12.4587V6.05216H95.0352V4.03948H96.5414V0.694458H99.1091V4.03948H101.892V6.03799H99.1091V12.2603C99.1378 12.6288 99.2526 12.8981 99.4534 13.0682C99.6686 13.2383 99.9268 13.3233 100.242 13.3233C100.242 13.3233 100.788 13.38 101.548 12.8272L102.552 14.6557C102.552 14.6557 101.562 15.6478 99.4534 15.6478Z" fill="white"></path><path d="M131.185 8.64601C131.486 7.90897 131.974 7.32784 132.648 6.9168C133.337 6.50576 134.083 6.29315 134.986 6.25063H135.072V3.96865C135.072 3.96865 134.843 3.89778 134.441 3.92613C133.681 3.98282 133.021 4.23795 132.39 4.70569C131.845 5.11673 131.386 5.64116 131.013 6.29315V4.03952H128.617V15.4636H131.185V8.64601Z" fill="white"></path><path d="M145.56 12.6005V8.5184C145.56 7.10101 145.115 5.92459 144.226 5.14503C143.336 4.36547 142.088 3.74182 140.496 3.74182C138.904 3.74182 137.397 4.15286 136.078 5.14503L136.02 5.18755L136.996 6.93093C136.996 6.93093 138.416 5.85372 140.295 5.85372C141.17 5.85372 141.844 6.06633 142.303 6.49154C142.762 6.91676 142.992 7.58292 142.992 8.29162V8.81605C141.844 8.5184 140.611 8.40501 140.08 8.40501C139.363 8.40501 135.174 8.56092 135.174 12.076C135.174 12.5863 135.274 13.0682 135.475 13.5076C135.676 13.947 135.948 14.3297 136.307 14.6557C136.651 14.9817 137.11 15.2368 137.627 15.421C138.129 15.6053 138.774 15.6903 139.377 15.6903C141.572 15.6903 142.705 14.8116 143.351 13.947C143.351 13.947 143.351 14.684 143.953 15.2084C144.254 15.4636 144.685 15.577 145.23 15.577C145.76 15.577 146.306 15.4494 146.306 15.4494V13.295C146.291 13.295 145.56 13.4509 145.56 12.6005ZM139.764 13.7769C139.133 13.7769 138.617 13.5926 138.215 13.2241C137.813 12.8698 137.612 12.4162 137.612 11.8776C137.612 11.2965 137.871 10.8713 138.387 10.5311C138.918 10.1909 139.606 10.0633 140.438 10.0633C140.869 10.0633 141.314 10.1059 141.758 10.1767C142.189 10.2476 142.633 10.3185 143.006 10.4602V11.0555C143.006 11.991 142.361 13.7769 139.764 13.7769Z" fill="white"></path><path d="M129.105 33.8472C129.019 34.0456 128.876 34.244 128.689 34.4141C128.503 34.5984 128.288 34.7543 128.029 34.8819C127.786 35.0236 127.499 35.1228 127.212 35.2079C126.437 35.4063 125.677 35.3496 125.017 35.0378C124.615 34.8535 124.257 34.5984 123.941 34.2582C123.64 33.9322 123.382 33.5353 123.209 33.0818C123.037 32.6282 122.937 32.1463 122.937 31.6219C122.937 31.0833 123.023 30.5872 123.195 30.1478C123.367 29.7084 123.611 29.3257 123.898 28.9997C124.199 28.6737 124.558 28.4186 124.96 28.2485C125.361 28.0643 125.777 27.9792 126.279 27.9792C126.867 27.9792 127.398 28.1068 127.872 28.3619C128.345 28.617 128.732 28.9714 129.019 29.4249L129.062 29.4816L131.415 28.6737L131.372 28.5887C130.941 27.7241 130.296 27.0296 129.435 26.5193C128.575 26.009 127.542 25.7397 126.351 25.7397C125.447 25.7397 124.615 25.8957 123.884 26.2075C123.152 26.5193 122.521 26.9445 121.99 27.4831C121.474 28.0217 121.058 28.6454 120.785 29.3682C120.513 30.0769 120.369 30.8423 120.369 31.6361C120.369 32.4298 120.513 33.1952 120.799 33.9039C121.086 34.6126 121.488 35.2504 122.019 35.789C122.535 36.3276 123.181 36.767 123.912 37.093C124.644 37.419 125.476 37.5749 126.365 37.5749C127.585 37.5749 128.646 37.3056 129.55 36.7528C130.454 36.2142 131.099 35.4913 131.472 34.6409L131.515 34.5559L129.134 33.7905L129.105 33.8472Z" fill="#FF574A"></path><path d="M168.439 33.8472C168.353 34.0456 168.21 34.244 168.023 34.4141C167.837 34.5984 167.622 34.7543 167.363 34.8819C167.119 35.0236 166.833 35.1228 166.546 35.2079C165.771 35.4063 165.011 35.3496 164.351 35.0378C163.949 34.8535 163.591 34.5984 163.275 34.2582C162.974 33.9322 162.716 33.5353 162.543 33.0818C162.371 32.6282 162.271 32.1463 162.271 31.6219C162.271 31.0833 162.357 30.5872 162.529 30.1478C162.701 29.7084 162.945 29.3257 163.232 28.9997C163.533 28.6737 163.892 28.4186 164.294 28.2485C164.695 28.0643 165.111 27.9792 165.613 27.9792C166.201 27.9792 166.732 28.1068 167.206 28.3619C167.679 28.617 168.066 28.9714 168.353 29.4249L168.396 29.4816L170.749 28.6737L170.706 28.5887C170.275 27.7241 169.63 27.0296 168.769 26.5193C167.908 26.009 166.876 25.7397 165.685 25.7397C164.781 25.7397 163.949 25.8957 163.218 26.2075C162.486 26.5193 161.855 26.9445 161.324 27.4831C160.808 28.0217 160.392 28.6454 160.119 29.3682C159.847 30.0769 159.703 30.8423 159.703 31.6361C159.703 32.4298 159.847 33.1952 160.133 33.9039C160.42 34.6126 160.822 35.2504 161.353 35.789C161.869 36.3276 162.515 36.767 163.246 37.093C163.978 37.419 164.81 37.5749 165.699 37.5749C166.919 37.5749 167.98 37.3056 168.884 36.7528C169.788 36.2142 170.433 35.4913 170.806 34.6409L170.849 34.5559L168.468 33.7905L168.439 33.8472Z" fill="#FF574A"></path><path d="M134.944 22.1678H132.348V24.7617H134.944V22.1678Z" fill="#FF574A"></path><path d="M134.944 25.924H132.348V37.348H134.944V25.924Z" fill="#FF574A"></path><path d="M154.898 25.7255C153.678 25.7255 152.029 26.1507 150.939 27.9508V25.9097H148.586V37.3338H151.154V30.5729C151.9 28.0783 153.865 27.9933 154.209 27.9933C155.658 27.9933 156.404 29.0847 156.404 30.9414V37.3338H158.972V30.502C158.972 26.7318 156.16 25.7255 154.898 25.7255Z" fill="#FF574A"></path><path d="M90.0579 3.85535C88.8386 3.85535 87.1889 4.28056 86.0987 6.08064V4.03961H83.7461V15.4637H86.3139V8.70279C87.0598 6.2082 89.0251 6.12316 89.3694 6.12316C90.8182 6.12316 91.5642 7.21454 91.5642 9.07131V15.4637H94.1319V8.63192C94.1463 4.86169 91.3203 3.85535 90.0579 3.85535Z" fill="white"></path><path d="M114.043 7.52631C113.785 6.81762 113.398 6.19397 112.91 5.66954C112.422 5.14511 111.734 4.70572 111.002 4.3939C110.27 4.0679 109.453 3.91199 108.563 3.91199C107.66 3.91199 106.828 4.0679 106.096 4.37972C105.364 4.69155 104.719 5.13094 104.202 5.66954C103.686 6.20815 103.27 6.84597 102.983 7.56883C102.696 8.2917 102.553 9.05708 102.553 9.85082C102.553 10.6446 102.696 11.4099 102.983 12.1186C103.27 12.8273 103.672 13.4651 104.202 14.0037C104.719 14.5424 105.364 14.9676 106.096 15.2794C106.828 15.5912 107.66 15.7471 108.549 15.7471C109.768 15.7471 110.93 15.4778 111.877 14.925C112.824 14.3864 113.527 13.6636 113.928 12.8131L113.971 12.7139L111.619 12.0478L111.59 12.1186C111.475 12.3596 111.318 12.5438 111.117 12.7423C110.916 12.9407 110.672 13.1108 110.414 13.2525C110.156 13.3943 109.854 13.4935 109.553 13.5644C108.822 13.7344 108.061 13.7061 107.387 13.451C107 13.3092 106.641 13.0966 106.34 12.8273C106.039 12.558 105.78 12.232 105.594 11.8635C105.407 11.5233 105.293 11.1548 105.25 10.7012H114.373L114.387 10.6304C114.402 10.5312 114.416 10.4036 114.43 10.2477C114.445 10.0918 114.445 9.92169 114.445 9.7516C114.43 8.97204 114.301 8.235 114.043 7.52631ZM111.848 8.887H105.235C105.278 8.47596 105.393 8.09326 105.565 7.73892C105.752 7.3704 105.981 7.0444 106.282 6.7751C106.569 6.51997 106.914 6.30736 107.301 6.15145C108.076 5.8538 109.051 5.8538 109.826 6.15145C110.385 6.36406 111.791 7.20031 111.848 8.887Z" fill="white"></path><path d="M147.381 29.3398C147.123 28.6311 146.735 28.0074 146.248 27.483C145.76 26.9586 145.071 26.5192 144.34 26.2074C143.608 25.8814 142.791 25.7255 141.901 25.7255C140.997 25.7255 140.165 25.8814 139.434 26.1932C138.702 26.505 138.057 26.9444 137.54 27.483C137.024 28.0216 136.608 28.6594 136.321 29.3823C136.034 30.1052 135.891 30.8706 135.891 31.6643C135.891 32.458 136.034 33.2234 136.321 33.9321C136.608 34.6408 137.01 35.2786 137.54 35.8172C138.057 36.3558 138.702 36.781 139.434 37.0929C140.165 37.4047 140.997 37.5606 141.887 37.5606C143.106 37.5606 144.268 37.2913 145.215 36.7385C146.162 36.1999 146.865 35.4771 147.266 34.6266L147.309 34.5274L144.957 33.8612L144.928 33.9321C144.813 34.1731 144.655 34.3573 144.455 34.5558C144.254 34.7542 144.01 34.9243 143.752 35.066C143.493 35.2077 143.192 35.307 142.891 35.3778C142.159 35.5479 141.399 35.5196 140.725 35.2644C140.338 35.1227 139.979 34.9101 139.678 34.6408C139.376 34.3715 139.118 34.0455 138.932 33.677C138.745 33.3368 138.631 32.9683 138.587 32.5147H147.711L147.725 32.4439C147.74 32.3446 147.754 32.2171 147.768 32.0612C147.783 31.9052 147.783 31.7352 147.783 31.5651C147.768 30.7997 147.639 30.0485 147.381 29.3398ZM145.186 30.7005H138.573C138.616 30.2894 138.731 29.9067 138.903 29.5524C139.09 29.1839 139.319 28.8579 139.62 28.5886C139.907 28.3334 140.252 28.1208 140.639 27.9649C141.413 27.6673 142.389 27.6673 143.164 27.9649C143.723 28.1775 145.129 29.0138 145.186 30.7005Z" fill="#FF574A"></path><path d="M182.612 29.3398C182.353 28.6311 181.966 28.0074 181.478 27.483C180.991 26.9586 180.302 26.5192 179.57 26.2074C178.839 25.8814 178.021 25.7255 177.132 25.7255C176.228 25.7255 175.396 25.8814 174.664 26.1932C173.933 26.505 173.287 26.9444 172.771 27.483C172.254 28.0216 171.838 28.6594 171.551 29.3823C171.265 30.1052 171.121 30.8706 171.121 31.6643C171.121 32.458 171.265 33.2234 171.551 33.9321C171.838 34.6408 172.24 35.2786 172.771 35.8172C173.287 36.3558 173.933 36.781 174.664 37.0929C175.396 37.4047 176.228 37.5606 177.117 37.5606C178.337 37.5606 179.499 37.2913 180.445 36.7385C181.392 36.1999 182.095 35.4771 182.497 34.6266L182.54 34.5274L180.187 33.8612L180.159 33.9321C180.044 34.1731 179.886 34.3573 179.685 34.5558C179.484 34.7542 179.24 34.9243 178.982 35.066C178.724 35.2077 178.423 35.307 178.122 35.3778C177.39 35.5479 176.63 35.5196 175.955 35.2644C175.568 35.1227 175.209 34.9101 174.908 34.6408C174.607 34.3715 174.349 34.0455 174.162 33.677C173.976 33.3368 173.861 32.9683 173.818 32.5147H182.941L182.956 32.4439C182.97 32.3446 182.984 32.2171 182.999 32.0612C183.013 31.9052 183.013 31.7352 183.013 31.5651C182.999 30.7997 182.87 30.0485 182.612 29.3398ZM180.417 30.7005H173.804C173.847 30.2894 173.961 29.9067 174.134 29.5524C174.32 29.1839 174.55 28.8579 174.851 28.5886C175.138 28.3334 175.482 28.1208 175.869 27.9649C176.644 27.6673 177.619 27.6673 178.394 27.9649C178.954 28.1775 180.359 29.0138 180.417 30.7005Z" fill="#FF574A"></path><path d="M124.602 4.03961V5.91055C124.186 5.27273 123.641 4.77664 123.024 4.43647C122.321 4.05378 121.503 3.85535 120.571 3.85535C119.782 3.85535 119.036 4.01126 118.39 4.32308C117.73 4.63491 117.171 5.06012 116.698 5.59873C116.224 6.12316 115.851 6.76098 115.593 7.48384C115.335 8.20671 115.191 8.97209 115.191 9.78C115.191 10.5454 115.321 11.2824 115.579 11.9769C115.837 12.6715 116.196 13.2951 116.655 13.8337C117.114 14.3723 117.687 14.7975 118.333 15.1094C118.978 15.4212 119.71 15.5771 120.485 15.5771C121.274 15.5771 122.149 15.3928 122.909 15.0385C123.583 14.7267 124.1 14.2873 124.559 13.6353V15.2369C124.559 17.363 122.966 18.3835 120.757 18.3835C118.276 18.3835 116.87 16.7535 116.87 16.7535L115.45 18.4544C115.45 18.4544 117.415 20.6371 120.757 20.6371C121.618 20.6371 122.45 20.5238 123.21 20.2828C123.971 20.056 124.645 19.73 125.19 19.2623C126.624 18.0575 126.983 16.5693 126.983 14.8259V4.03961H124.602ZM124.1 11.2116C123.239 13.2809 121.546 13.3801 121.059 13.3801C120.571 13.3801 118.935 13.3093 118.017 11.2116C117.831 10.7863 117.759 10.3328 117.759 9.82252C117.759 9.34061 117.831 8.87288 117.989 8.43349C118.146 7.97993 118.362 7.58306 118.649 7.22871C118.921 6.87437 119.265 6.59089 119.667 6.36411C120.069 6.1515 120.571 6.03811 121.073 6.03811C121.575 6.03811 122.077 6.1515 122.479 6.36411C122.88 6.57672 123.225 6.87437 123.497 7.22871C123.784 7.58306 123.999 7.9941 124.157 8.43349C124.315 8.88705 124.387 9.35479 124.387 9.82252C124.372 10.3328 124.272 10.7863 124.1 11.2116Z" fill="white"></path><path d="M102.711 35.151C102.18 35.151 102.051 34.7967 102.051 34.3148V22.182H99.4686V27.6814C99.0813 27.1995 98.5935 26.7885 97.9767 26.4625C97.2738 26.0798 96.4418 25.8955 95.5093 25.8955C94.7634 25.8955 94.0605 26.0515 93.4293 26.3633C92.7981 26.6751 92.253 27.1003 91.794 27.6248C91.3349 28.1492 90.9619 28.7728 90.7037 29.4532C90.4455 30.1477 90.3164 30.8706 90.3164 31.6785C90.3164 32.5005 90.4599 33.2801 90.7324 34.003C91.005 34.7258 91.3923 35.3637 91.8657 35.8881C92.3534 36.4267 92.9272 36.8519 93.6014 37.1637C94.2613 37.4756 94.9929 37.6315 95.7819 37.6315C97.5464 37.6315 99.1243 36.8094 99.8416 35.4912L99.8703 35.8597C99.899 36.2991 100.085 36.7527 100.415 37.0362C100.745 37.3196 101.161 37.4472 101.663 37.4614C102.495 37.4897 102.811 37.2488 102.811 37.2488V35.151H102.711ZM92.9989 31.6501C92.9989 31.1682 93.085 30.7005 93.2572 30.2611C93.4293 29.8075 93.6588 29.4532 93.9601 29.0988C94.247 28.7587 94.6056 28.4752 95.0073 28.2767C95.4089 28.0783 95.8536 27.9649 96.327 27.9649C96.7574 27.9791 97.159 28.0783 97.532 28.2484C97.948 28.4468 98.321 28.702 98.6366 29.028C98.9522 29.354 99.2104 29.7083 99.3969 30.1619C99.5834 30.6154 99.6694 31.3666 99.6694 31.8344C99.6694 32.3163 99.5834 32.784 99.4112 33.2234C99.2391 33.677 99.0096 34.0738 98.7227 34.4282C98.4358 34.7825 98.0771 35.066 97.6898 35.2644C97.2881 35.477 96.8578 35.5763 96.37 35.5763C95.9397 35.5621 95.5237 35.4629 95.1507 35.2928C94.7347 35.0944 94.3617 34.8251 94.0318 34.4991C93.7162 34.1589 93.458 33.762 93.2715 33.3226C93.085 32.8832 92.9989 32.1179 92.9989 31.6501Z" fill="#FF574A"></path><path d="M151.785 13.3233C151.053 13.4367 150.565 13.295 150.379 13.1532C150.164 12.9973 150.063 12.7139 150.035 12.3453V0.694458H147.467V12.4587C147.467 15.5486 149.992 15.6478 150.379 15.6478C150.924 15.6478 151.397 15.577 151.785 15.4777V13.3233Z" fill="white"></path><path d="M7.47378 27.1428H0V37.4897H7.47378V27.1428Z" fill="#FF574A"></path><path d="M63.8346 27.1428C63.6625 27.9649 63.2464 28.7019 62.6583 29.3114C61.8406 30.1477 60.7504 30.6296 59.5884 30.6863H59.3733C58.283 30.6863 57.2359 30.3036 56.4038 29.5949C55.6436 28.9571 55.1271 28.0925 54.912 27.1428H47.4238C47.4812 27.9366 47.682 28.7728 47.6964 28.8012C48.9157 34.0738 53.5779 37.8441 59.0433 38C59.0433 38 59.2872 38.0141 59.3876 38.0141C65.6134 38.0141 70.8063 33.2659 71.3084 27.157H63.8346V27.1428Z" fill="#FF574A"></path><path d="M9.26758 37.4897H16.9135L21.4322 27.1428H13.7719L9.26758 37.4897Z" fill="#FF574A"></path><path d="M44.7428 27.1428H37.1973L41.5869 37.4897H49.2328L44.7428 27.1428Z" fill="#FF574A"></path><path d="M119.437 31.2957C119.194 30.828 118.835 30.4311 118.405 30.1193C117.974 29.8075 117.443 29.5382 116.827 29.3114C116.21 29.0988 115.507 28.9003 114.747 28.7161C114.115 28.5743 113.57 28.4326 113.097 28.305C112.638 28.1775 112.236 28.0357 111.935 27.8657C111.634 27.7097 111.404 27.5113 111.275 27.2987C111.132 27.0861 111.06 26.8026 111.06 26.4766C111.06 25.8955 111.289 25.4561 111.749 25.1301C112.208 24.8041 112.939 24.634 113.943 24.634C114.388 24.634 114.833 24.6765 115.263 24.7616C115.693 24.8466 116.095 24.9742 116.454 25.1018C116.812 25.2435 117.128 25.3994 117.4 25.5553C117.601 25.6687 117.903 25.8955 118.103 26.0514L119.294 23.9679L119.237 23.9253C118.562 23.4434 117.773 23.0466 116.884 22.7206C115.995 22.3946 114.99 22.2386 113.958 22.2386C113.169 22.2386 112.408 22.3379 111.734 22.5363C111.046 22.7347 110.457 23.0324 109.955 23.4151C109.453 23.7978 109.052 24.2939 108.75 24.8608C108.463 25.4278 108.306 26.0939 108.306 26.831C108.306 27.4263 108.406 27.9365 108.607 28.3617C108.808 28.787 109.095 29.1555 109.468 29.4673C109.841 29.7791 110.314 30.1335 110.888 30.3319C111.447 30.5445 112.107 30.7429 112.867 30.9414C113.513 31.0973 114.101 31.2532 114.618 31.4091C115.12 31.5508 115.564 31.7209 115.909 31.9052C116.253 32.0753 116.525 32.2879 116.712 32.5288C116.898 32.7556 116.984 33.0533 116.984 33.3793C116.984 33.9462 116.741 34.3573 116.253 34.6407C115.751 34.9242 115.034 35.0801 114.115 35.0801C113.542 35.0801 112.968 35.0234 112.437 34.8959C111.906 34.7683 111.39 34.6266 110.931 34.4565C110.472 34.2864 110.07 34.088 109.726 33.8895C109.439 33.7194 109.066 33.4501 108.836 33.2801L107.66 35.4486L107.718 35.4912C108.593 36.1432 109.611 36.6534 110.701 36.9936C111.806 37.3338 112.953 37.5039 114.144 37.5039C114.933 37.5039 115.679 37.4188 116.353 37.2629C117.042 37.107 117.644 36.8377 118.161 36.4975C118.677 36.1573 119.093 35.6896 119.394 35.1368C119.696 34.584 119.839 33.9179 119.839 33.1525C119.81 32.4863 119.681 31.7493 119.437 31.2957Z" fill="#FF574A"></path><path d="M5.99624 0.439331H1.47754C0.659873 0.439331 0 1.1055 0 1.91341V27.1428H7.47378V1.91341C7.47378 1.1055 6.81391 0.439331 5.99624 0.439331Z" fill="white"></path><path d="M68.7277 18.7945C67.0637 16.7393 64.7398 15.2794 62.1864 14.6841C62.1864 14.6841 58.7292 13.9187 57.9402 13.7061C56.5344 13.3092 55.5446 12.0194 55.5446 10.5737C55.5446 8.77359 57.0222 7.31369 58.844 7.31369C60.4076 7.31369 61.7704 8.40507 62.0716 9.92167C62.1577 10.3185 62.3872 10.6729 62.7315 10.8855C63.0758 11.1123 63.4918 11.1973 63.8934 11.1123L68.1252 10.276C68.5269 10.191 68.8855 9.96419 69.1007 9.62402C69.3302 9.28385 69.4019 8.87281 69.3302 8.47594C68.3404 3.5718 63.9221 0 58.844 0C52.9482 0 48.1426 4.74823 48.1426 10.5737C48.1426 15.3644 51.3846 19.6166 56.018 20.7646C56.018 20.7646 58.2989 21.3032 60.4506 21.7993C61.4261 22.0261 62.3155 22.5931 62.9467 23.3726C63.5922 24.1805 63.9365 25.1443 63.9365 26.179C63.9365 26.4058 63.9221 26.6326 63.8791 26.8594C63.8791 26.8594 63.8504 27.0578 63.8217 27.1429H71.2955L71.3098 26.9161C71.3242 26.6751 71.3385 26.42 71.3385 26.1932C71.3385 23.5002 70.4204 20.878 68.7277 18.7945Z" fill="white"></path><path d="M30.3113 0.481812H28.2313C26.4525 0.481812 24.8315 1.53067 24.1286 3.16066L13.7715 27.1428H21.4317L29.2498 9.21288L34.0841 20.0984H29.0633C27.3993 20.0984 26.6247 20.8638 26.1226 22.026L23.9565 27.1286H44.7568L34.414 3.16066C33.7111 1.53067 32.0901 0.481812 30.3113 0.481812Z" fill="white"></path></g><defs><clipPath id="clip0"><rect width="183" height="38" fill="white"></rect></clipPath></defs></svg> 